<?xml version="1.0" encoding="utf-8"?>
<!-- Generator: Adobe Illustrator 26.0.1, SVG Export Plug-In . SVG Version: 6.00 Build 0)  -->
<svg version="1.1" id="Layer_1" xmlns="http://www.w3.org/2000/svg" xmlns:xlink="http://www.w3.org/1999/xlink" x="0px" y="0px"
	 viewBox="0 0 500 500" style="enable-background:new 0 0 500 500;" xml:space="preserve">
<style type="text/css">
	.st0{fill:#112B46;}
	.st1{fill:#1D262D;}
	.st2{fill:#606BF1;}
	.st3{fill:#FBD15B;}
	.st4{fill:#FF8578;}
	.st5{fill:#F9FBFC;}
	.st6{fill:#F1F2F2;}
	.st7{fill:url(#SVGID_1_);}
	.st8{fill:url(#SVGID_00000147942120795564726180000013357456877182008743_);}
	.st9{fill:#F7B094;}
	.st10{fill:#3D3D7A;}
	.st11{fill:#0A2033;}
	.st12{fill:#30475E;}
	.st13{fill:url(#SVGID_00000054971976998136111280000003360813003184899223_);}
	.st14{fill:#56548C;}
	.st15{fill:url(#SVGID_00000136398895521907104270000013405805041702006449_);}
	.st16{fill:#F4675D;}
	.st17{fill:url(#SVGID_00000119807541771282992940000000797711410041677493_);}
	.st18{fill:#E8987C;}
	.st19{fill:url(#SVGID_00000034796912746287119000000017240975409706683314_);}
	.st20{fill:#6D4B35;}
	.st21{fill:#ABB5BA;}
	.st22{fill:#8495A0;}
	.st23{fill:none;}
	.st24{fill:#141B56;}
	.st25{fill:#A5B7C6;}
	.st26{fill:url(#SVGID_00000174588924663957958100000002712126050269392831_);}
	.st27{fill:#747DED;}
	.st28{fill:url(#SVGID_00000143586809992214681650000006521633492680819360_);}
	.st29{fill:url(#SVGID_00000063600716802861120060000017814225103188316860_);}
	.st30{fill:#95A8B5;}
</style>
<g id="OBJECTS">
	<g>
		<g>
			<g>
				<g>
					<rect x="120.2" y="99.1" class="st0" width="97.5" height="91.1"/>
				</g>
				<g>
					<rect x="120.2" y="99.1" class="st1" width="97.5" height="9.6"/>
				</g>
				<g>
					<g>
						<path class="st2" d="M196.7,104c0,1-0.8,1.8-1.8,1.8s-1.8-0.8-1.8-1.8s0.8-1.8,1.8-1.8S196.7,103.1,196.7,104z"/>
					</g>
					<g>
						<path class="st3" d="M204.1,104c0,1-0.8,1.8-1.8,1.8c-1,0-1.8-0.8-1.8-1.8s0.8-1.8,1.8-1.8C203.3,102.3,204.1,103.1,204.1,104
							z"/>
					</g>
					<g>
						<path class="st4" d="M210.9,104.2c0,1-0.8,1.8-1.8,1.8c-1,0-1.8-0.8-1.8-1.8c0-1,0.8-1.8,1.8-1.8
							C210.1,102.5,210.9,103.2,210.9,104.2z"/>
					</g>
				</g>
				<g>
					<g>
						<g>
							<rect x="137.6" y="117.7" class="st4" width="13.8" height="1.2"/>
						</g>
						<g>
							<rect x="153.8" y="117.7" class="st3" width="13.8" height="1.2"/>
						</g>
						<g>
							<rect x="141.9" y="124" class="st2" width="21.4" height="1.2"/>
						</g>
						<g>
							<rect x="166.8" y="124" class="st4" width="10.9" height="1.2"/>
						</g>
						<g>
							<rect x="149.3" y="130.2" class="st3" width="9.4" height="1.2"/>
						</g>
						<g>
							<rect x="164.1" y="130.2" class="st3" width="31.2" height="1.2"/>
						</g>
						<g>
							<rect x="156.6" y="136.5" class="st2" width="35.7" height="1.2"/>
						</g>
						<g>
							<rect x="147.7" y="142.7" class="st4" width="11" height="1.2"/>
						</g>
						<g>
							<rect x="163.4" y="142.7" class="st2" width="11" height="1.2"/>
						</g>
					</g>
					<g>
						<g>
							<rect x="137.6" y="175.2" class="st4" width="16" height="1.2"/>
						</g>
						<g>
							<rect x="159.1" y="175.2" class="st3" width="16" height="1.2"/>
						</g>
						<g>
							<rect x="180.1" y="175.2" class="st4" width="16" height="1.2"/>
						</g>
						<g>
							<rect x="141.9" y="168.9" class="st2" width="31.2" height="1.2"/>
						</g>
						<g>
							<rect x="177.9" y="168.9" class="st4" width="31.2" height="1.2"/>
						</g>
						<g>
							<rect x="149.3" y="162.7" class="st4" width="31" height="1.2"/>
						</g>
						<g>
							<rect x="183" y="162.7" class="st3" width="8.6" height="1.2"/>
						</g>
						<g>
							<rect x="147.3" y="156.4" class="st3" width="11.7" height="1.2"/>
						</g>
						<g>
							<rect x="165.1" y="156.4" class="st2" width="11.7" height="1.2"/>
						</g>
						<g>
							<rect x="184.3" y="156.4" class="st4" width="11.7" height="1.2"/>
						</g>
						<g>
							<rect x="160.8" y="150.2" class="st3" width="16.4" height="1.2"/>
						</g>
						<g>
							<rect x="138.3" y="150.2" class="st2" width="16.4" height="1.2"/>
						</g>
					</g>
				</g>
				<g>
					<g>
						<g>
							<rect x="128.5" y="116.6" class="st5" width="1.5" height="1.5"/>
						</g>
					</g>
					<g>
						<g>
							<path class="st5" d="M130,171.1h-1.5v-3h1.5V171.1z M130,163.6h-1.5v-3h1.5V163.6z M130,156h-1.5v-3h1.5V156z M130,148.4
								h-1.5v-3h1.5V148.4z M130,140.8h-1.5v-3h1.5V140.8z M130,133.2h-1.5v-3h1.5V133.2z M130,125.7h-1.5v-3h1.5V125.7z"/>
						</g>
					</g>
					<g>
						<g>
							<rect x="128.5" y="175.7" class="st5" width="1.5" height="1.5"/>
						</g>
					</g>
				</g>
			</g>
			<g>
				<g>
					<rect x="238.8" y="79.8" class="st4" width="80.3" height="49.5"/>
				</g>
				<g>
					<path class="st5" d="M270,99.7l-9.6,4.1l9.6,4l-1.2,2.9l-11.5-5.1V102l11.5-5.2L270,99.7z"/>
					<path class="st5" d="M284.1,90.2l-6.9,26.7l-3.3-0.8l7-26.6L284.1,90.2z"/>
					<path class="st5" d="M300.6,102v3.5l-11.5,5.1l-1.2-2.9l9.5-4l-9.5-4.1l1.2-2.8L300.6,102z"/>
				</g>
			</g>
			<g>
				<g>
					<rect x="316.4" y="175.7" class="st2" width="45.8" height="32.6"/>
				</g>
				<g>
					<path class="st6" d="M335.5,182.7c-1.5,0-2,0.4-2,1.5v4.9c0,1.9-0.8,2.5-2.1,2.9c1.3,0.4,2.1,0.9,2.1,2.8v4.9
						c0,1.1,0.5,1.5,2,1.5v2.1c-3.7,0-4.8-1.2-4.8-3.7v-4.6c0-1.3-0.4-1.9-1.6-1.9v-2.4c1.2,0,1.6-0.5,1.6-1.9v-4.6
						c0-2.5,1-3.7,4.8-3.7V182.7z"/>
					<path class="st6" d="M347.7,184.3v4.6c0,1.3,0.4,1.9,1.6,1.9v2.4c-1.2,0-1.6,0.5-1.6,1.9v4.6c0,2.5-1,3.7-4.8,3.7v-2.1
						c1.5,0,2-0.4,2-1.5v-4.9c0-1.9,0.8-2.5,2.1-2.8c-1.3-0.4-2.1-1-2.1-2.9v-4.9c0-1.1-0.5-1.5-2-1.5v-2.1
						C346.7,180.6,347.7,181.8,347.7,184.3z"/>
				</g>
			</g>
			<g>
				<g>
					<rect x="89.2" y="86.9" class="st3" width="51.3" height="34.3"/>
				</g>
				<g>
					<g>
						<path class="st5" d="M106.2,96.7c-2.4,3.1-2.4,7.6,0.1,10.6c2.8,3.4,7.7,4,11.2,1.7l5.4,5.4c0.2,0.2,0.6,0.2,0.8,0l1.5-1.5
							c0.2-0.2,0.2-0.6,0-0.8l-5.4-5.4c2.2-3.3,1.8-7.7-1.1-10.6C115.2,92.5,109.4,92.7,106.2,96.7z M117,106.2
							c-2.3,2.3-6.1,2.3-8.4,0s-2.3-6.1,0-8.4s6.1-2.3,8.4,0C119.3,100.1,119.3,103.9,117,106.2z"/>
					</g>
				</g>
			</g>
			<g>
				<g>
					
						<radialGradient id="SVGID_1_" cx="277.5226" cy="306.4911" r="12.9253" gradientTransform="matrix(1 0 0 -1 0 498.8661)" gradientUnits="userSpaceOnUse">
						<stop  offset="0" style="stop-color:#FFC8AF"/>
						<stop  offset="1" style="stop-color:#FFBB9C"/>
					</radialGradient>
					<path class="st7" d="M289.8,192.9c-0.1,1.1-1.7,13-13.8,13c-12.8,0-10.6-12.6-10.6-12.6l0-0.1c1.2-0.3,2.6-0.4,4-0.2v-6
						l14.5-8.1h0.5v14C284.4,192.8,286.7,192.6,289.8,192.9z"/>
					<g>
						<g id="XMLID_43_">
							<g>
								
									<radialGradient id="SVGID_00000072960138098119788460000007530720750654774706_" cx="329.4447" cy="369.9276" r="20.3795" gradientTransform="matrix(0.9776 -0.2105 -0.2105 -0.9776 25.8443 599.9738)" gradientUnits="userSpaceOnUse">
									<stop  offset="0" style="stop-color:#FFC8AF"/>
									<stop  offset="1" style="stop-color:#FFBB9C"/>
								</radialGradient>
								<path style="fill:url(#SVGID_00000072960138098119788460000007530720750654774706_);" d="M282.8,152.1
									c2.1,2.1,3.6,4.8,4.4,8.1c1.4,6.1,0.1,12.6-1.7,18.6c-0.3,1-0.6,2-1.3,2.9c-0.5,0.6-1,1.1-1.6,1.6c-2.6,2.2-5.2,4.5-7.7,6.8
									c-1.8,1.5-12.5,2.8-14.5,1.3c-7.9-5.6-9.4-22-7.8-30.4C255.1,147.1,272.9,142.1,282.8,152.1z"/>
							</g>
						</g>
						<path class="st9" d="M278.3,169.9c0.1-1.3,1.5-2.8,2.9-1.9c1.4,0.9,1.1,3.3,0.5,4.6c-0.5,1-2,2.1-3.1,1.2
							c-0.9-0.8,0.5-1.7,0.5-2.5c0-0.7-1.3-1.1-0.7-1.8"/>
						<path class="st9" d="M278.6,176.1c1.4,0.4,3.9-0.7,4.5-2.7c0.6-2,0.5-4.3,0.5-4.3s0.7,1.8,0.4,4.7c-0.4,2.9-1.4,5.7-3.7,5.7
							C278,179.6,278.6,176.1,278.6,176.1z"/>
						<path class="st10" d="M276.8,174c0,0-0.1,0-0.2,0.1c-0.9,0.1-1.2-0.9-1.4-1.6c-0.3-1.6-0.3-3.2-0.3-4.8c0-0.4,0-0.9-0.1-1.3
							c-0.5-1.1-1.8-1.9-2.2-3.1c-0.5-1.4,0.9-2.8,0.3-4.3c-0.8-2.3-3.8-2.8-5.9-2.8c-3.2,0-6.4,0.6-9.5,1.1
							c-3.4,0.5-7.6,1-10.6-1.1c-3.6-2.6-5.1-9.2-2.4-12.9c1.4-2,4.2-3.1,6.6-3.1c2.6-0.1,4.7,1.5,7,2.2c1.9,0.6,3.7-1.2,5.4-1.5
							c2.2-0.4,3.1,1.9,5.1,2c1.9,0.1,3.7-1.4,5.6-1.7c3.6-0.7,3.4,3,5.9,4.2c1.5,0.8,3.5,0.3,5,1.1c1.2,0.6,1.3,1.7,1.6,2.9
							c0.2,1,0.2,2.2,0.6,3.2c0.3,0.9,1,1.4,1.6,2.1c0.6,0.8,1,1.6,1.4,2.6c0.7,2.1,0.9,4.4,0.7,6.6c-0.3,3.7-1.5,7.3-2.7,10.8
							c-0.8,2.2-1.1,4.6-2.3,6.7c-0.3,0.6-1.8,2.2-2.3,1c-0.1-0.3-0.1-0.6-0.1-0.9c0.2-2.3,2.3-17.3-3.3-15.5
							c-1.2,0.4-2,1.4-2.4,2.5c-0.5,1.4-0.6,2.7-0.5,4.1c0,0.2,0,0.4,0,0.6C277.1,173.6,277,173.9,276.8,174z"/>
					</g>
				</g>
				<path class="st9" d="M269.3,191.6c6.5-1,10.7-6.1,10.7-6.1s-1.7,8.6-11.1,9L269.3,191.6z"/>
				<g>
					<path class="st11" d="M279.9,308.6h9.2v88.5c0,0.9-0.7,1.6-1.6,1.6h-6c-0.9,0-1.6-0.7-1.6-1.6V308.6z"/>
					<path class="st12" d="M259.2,309.8h50.7v1.4c0,3.5-2.8,6.3-6.3,6.3h-38.1c-3.5,0-6.3-2.8-6.3-6.3L259.2,309.8L259.2,309.8z"/>
					<g>
						<path class="st11" d="M279.9,388.2h9.2v20.5c0,0.9-0.7,1.6-1.6,1.6h-6c-0.9,0-1.6-0.7-1.6-1.6V388.2z"/>
						<path class="st11" d="M236.7,405c0,3,2.4,5.4,5.4,5.4s5.4-2.4,5.4-5.4c0-3-2.4-5.4-5.4-5.4C239.1,399.6,236.7,402,236.7,405z"
							/>
						<path class="st11" d="M321.6,405c0,3,2.4,5.4,5.4,5.4c3,0,5.4-2.4,5.4-5.4c0-3-2.4-5.4-5.4-5.4C324,399.6,321.6,402,321.6,405
							z"/>
						<rect x="275.3" y="381.3" class="st12" width="18.6" height="16.2"/>
						<path class="st3" d="M236.7,401.4h95.8v-1.9c0-3.2-2.6-5.8-5.8-5.8h-84.3c-3.2,0-5.8,2.6-5.8,5.8V401.4z"/>
					</g>
					<rect x="281.3" y="319.4" class="st12" width="3.2" height="60.5"/>
				</g>
				<path class="st3" d="M320.8,244.4c-2.2-0.1-4,1.8-3.9,4c0.6,11-1.7,37.8-11.9,47c-12.5,11.2-48,9.7-48,9.7s-5.9,7.2,5.9,8.8
					c11.7,1.6,44.7,0.5,52.7-6.9c7.7-7.2,12.3-26.1,8.9-59C324.2,245.9,322.7,244.5,320.8,244.4L320.8,244.4z"/>
				<g id="XMLID_42_">
					<g>
						
							<radialGradient id="SVGID_00000082328559740342275990000011343024768363919237_" cx="249.96" cy="111.3211" r="8.126" gradientTransform="matrix(1 0 0 -1 0 498.8661)" gradientUnits="userSpaceOnUse">
							<stop  offset="0" style="stop-color:#FFC8AF"/>
							<stop  offset="1" style="stop-color:#FFBB9C"/>
						</radialGradient>
						<polygon style="fill:url(#SVGID_00000082328559740342275990000011343024768363919237_);" points="254.3,379.9 258.5,389.5 
							245.6,395.2 241.4,385.5 						"/>
						<path class="st14" d="M315.3,273c-0.8,1.6-58.2,0-63.6,0.5c0,0-35.1,16.8-40.2,32.5c-0.5,1.6-0.6,3.7-0.5,6.2
							c1.4,22.1,26.6,75.1,26.6,75.1l3.9-1.7l12.9-5.6l1.8-0.8c0,0-20-59.5-16-62.7c4-3.2,49.3-11.2,65-15.4
							C320.9,296.7,315.3,273,315.3,273z"/>
						
							<radialGradient id="SVGID_00000093147846040105211820000016892396614430187438_" cx="198.5" cy="109.2761" r="7.4017" gradientTransform="matrix(1 0 0 -1 0 498.8661)" gradientUnits="userSpaceOnUse">
							<stop  offset="0" style="stop-color:#FFC8AF"/>
							<stop  offset="1" style="stop-color:#FFBB9C"/>
						</radialGradient>
						<polygon style="fill:url(#SVGID_00000093147846040105211820000016892396614430187438_);" points="205.1,382.4 206.1,396.8 
							191.9,396.8 190.9,382.4 						"/>
						<path class="st10" d="M251.3,273l-0.5,0.2c0,0-58.8,8.3-68.4,24.8c-6.2,10.7,5.8,89.2,5.8,89.2l20.8,0c0,0-3.1-65.4-2.1-69
							c1.2-4.1,3.2-5.7,4-6.1c-0.2-2.5,0-4.6,0.5-6.2c5.1-15.7,40.2-32.5,40.2-32.5C251.5,273.5,251.4,273.3,251.3,273z"/>
						<path class="st4" d="M308.2,218.7l-4,0.5c0,0-1,10.6-3.3,21.3l-49.2,18.7l-0.7,3.6c-0.2,0-0.4,0-0.6,0c0,0.7,0,1.5,0.1,2.1
							c0.1,4.1,0.4,7.1,0.8,8.2c0.1,0.2,0.2,0.4,0.3,0.5c1.3,1.1,18.7-1,37.5,5.9c16.3,6,25.4,12.5,25.9,11.6
							C320.1,280.4,310.8,238.6,308.2,218.7z"/>
						<path class="st16" d="M303,243c-1.3,6.3-4.7,18.8-11.3,20.5c-8.7,2.2-25.5,2.1-41.2,1.2c0-0.7,0-1.4-0.1-2.1
							c0.2,0,0.4,0,0.6,0l0.7-3.6l49.2-18.7c2.4-10.6,3.3-21.3,3.3-21.3s0,0.1,0,0.2C304.3,221,305,233.7,303,243z"/>
						<path class="st16" d="M253.8,203c-0.9,1.6-2.1,18.7-2.8,35.7l-10.1-9.4C245.1,221,253.8,203,253.8,203z"/>
						<path class="st9" d="M247.7,251c-8.5,1.5-16.3,2.7-16.3,2.7l0,0.4c-9.4-7.5-23.8-28.9-23.8-28.9s4.3-5.2,5.4-6.5
							c0.2-0.2,23.6,15.9,24.8,15.8c0.3,0,1.5-2.1,3.1-5.3l10.1,9.4c-0.2,4-0.3,8.1-0.4,11.9C249.6,250.7,248.7,250.8,247.7,251z"/>
						
							<radialGradient id="SVGID_00000066489870774820890580000001799860785903883146_" cx="243.5606" cy="248.1687" r="41.4442" gradientTransform="matrix(1 0 0 -1 0 498.8661)" gradientUnits="userSpaceOnUse">
							<stop  offset="0" style="stop-color:#FFC8AF"/>
							<stop  offset="1" style="stop-color:#FFBB9C"/>
						</radialGradient>
						<path style="fill:url(#SVGID_00000066489870774820890580000001799860785903883146_);" d="M231.5,253.8l-0.2,7h-25.6
							c0,0,2.5-10,9.5-10c6.9,0,9.6,3.7,9.6,3.7L231.5,253.8z"/>
						<path class="st9" d="M212.8,218.6l0.2,0.2c-1.1,1.4-5.4,6.5-5.4,6.5l-2.7-1.9c0,0-2.9,1.8-6.4-0.1c-3.6-1.9-1.4-6.6-1.2-7.1
							c-0.7,0.2-5,3.6-5.6,3.3s-1.2-1.6,3.6-6.3c4.8-4.7,11.2,1.3,11.4,1.3L212.8,218.6z"/>
						<path class="st9" d="M199.2,222.5c0,0-1,1.9,0.8,2.8c1.8,0.8,5.4,1.4,6.9,1.3c1.5-0.1,2.8-2.3,2.8-2.3l-4.6-4.4h-3.7
							L199.2,222.5z"/>
						<path class="st18" d="M198.9,223.4c0.3-0.9,2.9-0.4,4.5-0.4c1.2,0,1.9-0.3,2.2-1.2c0.4-0.9-1.4-2.4-1.7-1.9
							c-0.3,0.5,0.6,1.1,0.7,1.7s-1.7,0.8-3.1,0.8s-3.7,0.4-3.7,0.4L198.9,223.4z"/>
					</g>
				</g>
				
					<radialGradient id="SVGID_00000103230681219495657890000009879365305302352800_" cx="243.5606" cy="248.1687" r="41.444" gradientTransform="matrix(1 0 0 -1 0 498.8661)" gradientUnits="userSpaceOnUse">
					<stop  offset="0" style="stop-color:#FFC8AF"/>
					<stop  offset="1" style="stop-color:#FFBB9C"/>
				</radialGradient>
				<path style="fill:url(#SVGID_00000103230681219495657890000009879365305302352800_);" d="M298.4,249.6l-25-8.9
					c-1.8,3.4-3.8,6-5.7,6.5c-2.9,0.8-10,2.1-17.1,3.3c-0.9,0.2-1.9,0.3-2.8,0.5c-8.5,1.5-16.3,2.7-16.3,2.7l0,0.4v0.3l-0.2,6.3v1.6
					c0,0,8.5-0.4,19.2,0.3c15,1.1,34.3,1.7,40.8-1.3C294.2,259.9,296.6,255.3,298.4,249.6C298.5,249.5,298.5,249.5,298.4,249.6z"/>
				<polygon class="st9" points="273.4,240.7 298.4,249.6 297.3,252.9 272.5,242.3 				"/>
				<path class="st4" d="M273.4,240.7c-1.8,3.4-3.8,6-5.7,6.5c-2.9,0.8-10,2.1-17.1,3.3c0.1-3.8,0.2-7.8,0.4-11.9
					c0.7-17,1.9-34.1,2.8-35.7c1.4-2.7,5.4-8.5,11.6-9.8l0,0.1c0,0-2.1,12.6,10.6,12.6c12.2,0,13.7-11.8,13.8-13
					c6.3,0.7,15.9,3.8,17.2,16.4c0.3,2.5,0.7,5.7,1.1,9.3l-4,0.5c0,0-1.6,17.7-5.7,30.3c0,0-0.1,0-0.1,0.1L273.4,240.7z"/>
				<polygon class="st20" points="273.1,238.4 283.1,214.2 275.8,239.4 				"/>
				<path class="st4" d="M289.8,192.9h-5.5c0,0-7.8,8.5-12.7,8.5s-2.3-8.5-2.3-8.5h-2.4c-7,0-12.9,5.2-13.6,12.2
					c-0.1,0.8-0.2,1.6-0.2,2.2c-0.5,5.1,20.3,8.9,20.3,8.9l10.7-0.6l6.5-12.7l1.3-5.2L289.8,192.9z"/>
				<g>
					<g>
						<g id="XMLID_39_">
							<g>
								<path class="st6" d="M224.1,406.3c0.5,2.6,2.3,4.5,4.9,4l34.7-6.5c0.9-0.2,1.5-1,1.3-1.9l-0.6-3.1
									C264.4,398.8,227.9,405.2,224.1,406.3L224.1,406.3z"/>
								<path class="st10" d="M234.4,397.5c0.4-0.3,0.7-0.6,1.1-0.9c0.7-0.6,1.4-1.2,2-1.8c0.4-0.3,0.7-0.6,1-0.9
									c0.6-0.6,1.2-1.1,1.8-1.6c0.4-0.4,0.7-0.7,1.1-1c0.6-0.5,1.1-1,1.4-1.3c0.3-0.3,0.7-0.3,1,0c1.4,1.2,6,3.9,14.4-1.2
									c0.4-0.2,0.9-0.1,1.1,0.3l5,9.7c0,0-36.5,6.4-40.3,7.5C225.3,405.5,230,401.4,234.4,397.5z"/>
							</g>
						</g>
					</g>
				</g>
				<g>
					<g>
						<g id="XMLID_44_">
							<g>
								<path class="st6" d="M169.4,405.9c0.1,2.6,1.6,4.8,4.2,4.7l35.3-0.9c0.9,0,1.6-0.8,1.6-1.7l-0.1-3.1
									C210.4,405,173.4,405.5,169.4,405.9L169.4,405.9z"/>
								<path class="st10" d="M181,398.9c0.4-0.2,0.8-0.5,1.2-0.8c0.8-0.5,1.6-1,2.3-1.5c0.4-0.2,0.8-0.5,1.1-0.7
									c0.7-0.5,1.4-0.9,2-1.3c0.4-0.3,0.8-0.5,1.2-0.8c0.7-0.4,1.2-0.8,1.6-1c0.3-0.2,0.8-0.2,1,0.1c1.2,1.4,5.3,4.9,14.4,1.1
									c0.4-0.2,0.9,0,1.1,0.5l3.4,10.4c0,0-37.1,0.5-41,0.9C170.8,405.3,176,402.1,181,398.9z"/>
							</g>
						</g>
					</g>
				</g>
				<g>
					<polygon class="st21" points="144.3,262.4 125.5,212.1 179.1,212.1 198,262.4 					"/>
					<polygon class="st22" points="201.3,262.4 198,262.4 179.1,212.1 182.1,212.2 199.6,257.7 					"/>
					<polyline class="st23" points="128.4,256.9 128.6,256.9 195.9,256.9 					"/>
					<g>
						<path class="st22" d="M200.3,262.4h35.4l-0.1-3.2c0,0-35.5,0-36.1,0"/>
					</g>
				</g>
				<g>
					<g>
						<rect x="342.8" y="271.9" class="st22" width="8.5" height="140.2"/>
					</g>
					<g>
						<rect x="296.4" y="271.9" class="st21" width="8.5" height="140.2"/>
					</g>
					<g>
						<rect x="148" y="271.9" class="st22" width="8.5" height="140.2"/>
					</g>
					<g>
						<rect x="101.7" y="271.9" class="st21" width="8.5" height="140.2"/>
					</g>
					<path class="st24" d="M359.8,272.5H93.5c-2.3,0-4.2-1.9-4.2-4.1v-1.8c0-2.3,1.9-4.1,4.2-4.1h266.4c2.3,0,4.1,1.9,4.1,4.1v1.8
						C364,270.6,362.1,272.5,359.8,272.5z"/>
				</g>
				<polygon class="st22" points="134.4,217.4 135.4,219.8 146.1,219.8 145.1,217.4 				"/>
				<polygon class="st18" points="240.9,229.2 240.1,230.7 250.9,241.9 250.9,238.6 				"/>
			</g>
		</g>
		<g>
			<rect x="29.7" y="410.4" class="st25" width="431.9" height="9.9"/>
			<g>
				<g>
					
						<linearGradient id="SVGID_00000032615303086607075280000016834757141426043552_" gradientUnits="userSpaceOnUse" x1="669.2702" y1="491.9344" x2="629.9336" y2="442.3462" gradientTransform="matrix(0.7834 -0.6215 -0.6215 -0.7834 165.3013 1100.1031)">
						<stop  offset="0" style="stop-color:#606BF1"/>
						<stop  offset="1" style="stop-color:#58479F"/>
					</linearGradient>
					<path style="fill:url(#SVGID_00000032615303086607075280000016834757141426043552_);" d="M393.2,337.2
						c-1.7,8.3-1.2,22.5-12.2,24.8c-3,0.6-5.8-1.5-7.5-3.8c-2.3-3.1-2.8-9.6-2.8-13.3c0-3,1-6.3,1.4-9.2c0.4-3.2,0.6-6.5,1-9.7
						c1.4-11.6,7.4-21.3,17.7-27.1c0.8,3.8,2.6,7,4.2,10.7c0.7,1.7,1.4,3.4,1.9,5.2c0.8,3.1-0.2,6.2-0.9,9.2
						C394.7,328.2,394.1,332.8,393.2,337.2z"/>
					<path class="st27" d="M379.1,362.2c0.1-0.7,0.2-1.4,0.3-2.1c1.3,0,2.7-0.8,3.8-1.3c1.9-1,3.5-2.4,5-3.9
						c0.1-0.1-0.1-0.2-0.1-0.1c-1.5,1.3-3.1,2.5-4.8,3.3c-1,0.5-2.5,1.2-3.7,1.4c0.1-0.8,0.2-1.7,0.4-2.5c1.4-0.2,2.6-1.1,3.8-1.8
						c2-1.2,3.7-2.7,5.4-4.1c0,0,0,0,0,0c-2.7,2-5.7,4.7-9.1,5.3c0.2-1,0.4-2.1,0.6-3.1c0,0,0-0.1,0-0.2c3.9-1,6.6-4.1,9.6-6.6
						c0,0,0-0.1,0-0.1c-3,2.3-5.8,4.9-9.4,6.1c0.3-1.5,0.6-2.9,1-4.4c3.6-1.3,6.4-3.4,8.9-6.3c0,0,0-0.1-0.1-0.1
						c-2.6,2.7-5.4,4.2-8.7,5.8c0.3-1.5,0.7-2.9,1-4.4c1.5-0.8,3.2-1.2,4.6-2.2c1.4-1,2.7-2.1,3.6-3.6c0-0.1-0.1-0.1-0.1-0.1
						c-2,2.9-5,3.8-7.9,5.3c0.3-1.4,0.5-2.7,0.8-4.1c3.2-1.8,6.8-3.4,8.6-6.9c0,0,0-0.1,0,0c-1.9,3.1-5.3,4.5-8.4,6.2
						c0-0.2,0.1-0.5,0.1-0.7c0.2-1.3,0.4-2.5,0.6-3.8c1.9-0.7,3.6-1.8,5.3-2.9c1.2-0.8,2.5-1.5,3.2-2.8c0-0.1-0.1-0.1-0.1-0.1
						c-1.7,2.5-5.5,3.9-8.4,5.2c0.2-1.3,0.4-2.6,0.5-3.9c3.1-1.9,6.8-2.9,8.7-6.3c0.1-0.1-0.1-0.2-0.1-0.1c-2,3.1-5.5,4.1-8.5,5.8
						c0.1-0.8,0.2-1.6,0.4-2.4c3.4-1.2,7.3-4,9-7.1c0.1-0.2-0.1-0.3-0.2-0.2c-1.8,2.7-5.4,5.6-8.7,6.6c0.2-1.3,0.4-2.6,0.6-3.9
						c0,0,0-0.1,0-0.1c1.5-0.4,3-1.5,4.3-2.3c1.6-1,3.1-2.1,4-3.7c0.1-0.2-0.2-0.3-0.3-0.2c-1.5,2.7-5,4.5-8,5.5
						c0.1-0.5,0.2-0.9,0.3-1.4c0.1-0.7,0.3-1.4,0.4-2.1c1.2-0.8,2.7-1.2,3.9-2.1c1-0.8,2-1.7,2.9-2.6c0.1-0.1,0-0.2-0.1-0.1
						c-1.2,1.1-2.5,2.2-4,3c-0.8,0.4-1.8,0.7-2.6,1.2c0.2-1.1,0.5-2.3,0.7-3.4c0,0,0,0,0,0s0,0,0,0c0.1,0,0.1,0,0.2-0.1
						c1.6-0.4,2.9-1.8,4-3c0,0,0-0.1,0,0c-1.1,1.1-2.5,2.2-4,2.7c0,0,0,0,0,0c0,0-0.1,0-0.1,0c0.2-0.9,0.4-1.9,0.5-2.8
						c0.1,0,0.2-0.1,0.2-0.2c0.9-0.6,1.6-1.3,2.4-2c0.1,0,0-0.1-0.1-0.1c-0.8,0.7-1.5,1.2-2.4,1.7c0.3-1.9,0.5-3.9,0.6-5.8
						c0-0.2-0.3-0.2-0.3,0c-0.2,1.9-0.5,3.8-0.8,5.6c-0.9-1.2-1.9-2.4-2.5-3.8c0-0.1-0.1,0-0.1,0c0.3,0.8,0.7,1.6,1.2,2.3
						c0.4,0.7,0.7,1.5,1.3,2c-0.2,1-0.4,2-0.6,3c-1.1-0.2-2.1-0.4-3-1.2c-1.1-1-1.7-2.3-1.9-3.8c0-0.2-0.3-0.2-0.3,0
						c0.1,1.4,0.7,2.6,1.6,3.7c1,1.1,2.1,1.4,3.5,1.7c-0.2,1.1-0.5,2.3-0.7,3.4c-1-0.6-1.9-1.4-2.8-2.1c-1.5-1.1-2.3-2.5-3.6-3.8
						c-0.1-0.1-0.3,0.1-0.2,0.2c1.2,1.2,2,2.6,3.3,3.7c1,0.8,2,1.8,3.2,2.4c0,0.1,0,0.1,0,0.2c0,0,0,0,0,0c-0.1,0.1-0.1,0.2,0,0.3
						c-0.2,1.1-0.5,2.2-0.7,3.3c0,0.1,0,0.1,0,0.2c-2.6-1.2-6.4-3.2-6.7-6.2c0-0.3-0.5-0.2-0.4,0.1c0.8,3.4,4.5,4.9,7,6.7
						c-0.2,1.2-0.5,2.5-0.7,3.8c-1.6-0.6-3.2-1.3-4.6-2.4c-1.3-1-3-2.2-3.6-3.8c0,0-0.1,0-0.1,0c0.5,1.5,2.1,2.6,3.3,3.7
						c1.5,1.3,3,2.5,4.9,3c0,0,0,0.1,0,0.2c-0.1,0.8-0.3,1.6-0.4,2.4c-3.1-0.2-7.5-2.6-9-5c0,0,0,0,0,0c1.1,1.8,2.7,2.9,4.6,3.8
						c1.4,0.7,2.9,1.5,4.4,1.6c-0.2,1.5-0.4,3-0.7,4.4c-1.4-0.5-2.8-0.7-4.1-1.3c-2-0.8-3.5-2.2-4.7-4c-0.1-0.1-0.2,0-0.2,0.1
						c2.1,3.4,5.2,4.4,8.9,5.7c-0.2,1.2-0.4,2.4-0.6,3.6c-3-0.6-6.8-2.4-8.3-5c-0.1-0.2-0.4,0-0.3,0.2c1,1.6,2.6,2.7,4.2,3.5
						c1.2,0.6,2.9,1.6,4.3,1.7c0,0,0,0.1,0,0.1c-0.3,1.7-0.6,3.5-1,5.2c-3.3-0.8-5.5-3.3-7.9-5.6c-0.2-0.2-0.4,0.1-0.3,0.2
						c2.5,2.4,4.6,5,8,5.9c-0.3,1.4-0.6,2.8-1,4.2c-2.8-0.8-5.6-2.8-7.5-5.1c-0.1-0.2-0.4,0.1-0.2,0.2c1.9,2.5,4.6,4.4,7.6,5.4
						c-0.4,1.5-0.8,3-1.1,4.5c-2.9-0.4-5.1-2.3-6.9-4.6c0,0-0.1,0-0.1,0.1c1.6,2.2,4,4.8,6.9,5c-0.1,0.5-0.2,1-0.4,1.4
						c-0.1,0.3-0.1,0.6-0.2,0.9c-2.2-0.6-4.2-1.4-6-2.9c0,0-0.1,0-0.1,0.1c1.7,1.5,3.8,2.6,6,3.3c-0.2,0.9-0.5,1.8-0.8,2.8
						c-0.5-0.2-1.1-0.5-1.7-0.7c-1.1-0.3-1.8-1-2.7-1.6c-0.1,0-0.2,0.1-0.1,0.1c0.8,0.5,1.4,1.2,2.4,1.6c0.7,0.3,1.4,0.6,2,0.9
						c-1,3.7-1.9,7.7-1.4,11.2c0.1,0.8,1.4,1,1.6,0.2C378.8,367.7,378.8,364.9,379.1,362.2z"/>
				</g>
				<g>
					
						<linearGradient id="SVGID_00000044892859148573051430000003455798045870576289_" gradientUnits="userSpaceOnUse" x1="902.4192" y1="591.9825" x2="863.0781" y2="542.3887" gradientTransform="matrix(0.4479 -0.8941 -0.8941 -0.4479 458.7577 1375.9089)">
						<stop  offset="0" style="stop-color:#606BF1"/>
						<stop  offset="1" style="stop-color:#58479F"/>
					</linearGradient>
					<path style="fill:url(#SVGID_00000044892859148573051430000003455798045870576289_);" d="M358.3,334.8c2,8.3,8.4,20.9-0.6,27.6
						c-2.4,1.8-5.9,1.1-8.5-0.3c-3.4-1.8-6.6-7.5-8.1-10.9c-1.2-2.7-1.7-6.1-2.7-9c-1-3.1-2.1-6.1-3.2-9.2
						c-3.7-11.1-2.3-22.5,4.6-32.1c2.3,3.1,5.3,5.3,8.3,7.9c1.4,1.2,2.7,2.5,3.9,3.9c2.1,2.5,2.5,5.7,3,8.7
						C355.9,326,357.3,330.4,358.3,334.8z"/>
					<path class="st27" d="M356.1,363.5c-0.2-0.7-0.4-1.3-0.6-2c1.2-0.6,2.1-1.8,2.9-2.8c1.3-1.7,2.1-3.7,2.9-5.7
						c0-0.1-0.1-0.2-0.2-0.1c-0.8,1.8-1.7,3.5-3,5c-0.7,0.8-1.7,2.1-2.8,2.8c-0.2-0.8-0.5-1.6-0.7-2.4c1.2-0.7,1.9-2.1,2.7-3.2
						c1.3-1.9,2.2-4,3.2-6c0,0,0,0,0,0c-1.6,2.9-3.2,6.7-6,8.7c-0.3-1-0.5-2-0.8-3.1c0,0,0-0.1,0-0.2c3.1-2.6,4.3-6.5,5.9-10
						c0-0.1-0.1-0.1-0.1,0c-1.7,3.3-3.1,6.9-6,9.5c-0.3-1.5-0.6-2.9-1-4.4c2.7-2.7,4.4-5.8,5.4-9.5c0-0.1-0.1-0.1-0.1,0
						c-1.2,3.5-3.1,6.1-5.5,8.9c-0.3-1.5-0.6-2.9-1-4.4c1.1-1.3,2.4-2.4,3.2-3.9c0.9-1.5,1.5-3.1,1.7-4.8c0-0.1-0.1-0.1-0.1,0
						c-0.6,3.4-3,5.5-4.9,8.1c-0.3-1.4-0.6-2.7-1-4c2.2-3,4.7-6,4.9-9.8c0,0,0,0-0.1,0c-0.4,3.7-3,6.3-5,9.2
						c-0.1-0.2-0.1-0.5-0.2-0.7c-0.4-1.2-0.7-2.5-1.1-3.7c1.4-1.5,2.5-3.2,3.6-4.9c0.8-1.2,1.6-2.4,1.8-3.9c0-0.1-0.1-0.1-0.1,0
						c-0.5,3-3.4,5.9-5.4,8.2c-0.4-1.2-0.8-2.5-1.1-3.7c2-3,4.9-5.5,5.2-9.4c0-0.1-0.2-0.1-0.2,0c-0.5,3.6-3.3,6-5.2,8.9
						c-0.2-0.8-0.5-1.5-0.7-2.3c2.5-2.5,4.9-6.8,5.2-10.2c0-0.2-0.3-0.2-0.3,0c-0.5,3.2-2.6,7.4-5.1,9.7c-0.4-1.2-0.7-2.5-1-3.8
						c0,0,0-0.1,0-0.1c1.2-1,2.1-2.6,2.9-3.9c1-1.5,1.9-3.2,2.1-5.1c0-0.2-0.3-0.2-0.3,0c-0.2,3-2.7,6.2-4.9,8.3
						c-0.1-0.5-0.2-0.9-0.4-1.4c-0.2-0.7-0.3-1.4-0.5-2.1c0.7-1.3,2-2.3,2.7-3.6c0.6-1.1,1.1-2.4,1.5-3.6c0-0.1-0.1-0.2-0.2-0.1
						c-0.6,1.5-1.3,3.1-2.3,4.4c-0.6,0.8-1.3,1.4-1.8,2.2c-0.3-1.1-0.5-2.3-0.8-3.4c0,0,0,0,0,0c0,0,0,0,0,0c0.1,0,0.1-0.1,0.1-0.1
						c1.3-1.1,1.9-2.9,2.3-4.4c0,0,0-0.1-0.1,0c-0.6,1.5-1.3,3.1-2.5,4.1c0,0,0,0,0,0c0,0-0.1,0-0.1,0c-0.2-0.9-0.5-1.8-0.7-2.8
						c0.1-0.1,0.1-0.2,0.1-0.3c0.5-0.9,0.9-1.9,1.3-2.9c0-0.1-0.1-0.1-0.1,0c-0.4,0.9-0.9,1.7-1.5,2.5c-0.5-1.9-1.1-3.7-1.9-5.6
						c-0.1-0.2-0.3,0-0.3,0.1c0.6,1.8,1.2,3.6,1.7,5.4c-1.3-0.7-2.7-1.4-3.8-2.4c-0.1,0-0.1,0-0.1,0.1c0.6,0.6,1.3,1.1,2.1,1.6
						c0.7,0.4,1.3,1,2,1.3c0.3,1,0.5,2,0.7,3c-1.1,0.3-2.1,0.5-3.2,0.2c-1.4-0.4-2.5-1.3-3.3-2.6c-0.1-0.2-0.4,0-0.2,0.1
						c0.7,1.2,1.7,2.1,3,2.6c1.3,0.5,2.5,0.4,3.8,0.1c0.3,1.1,0.5,2.3,0.8,3.4c-1.1-0.1-2.3-0.4-3.4-0.7c-1.8-0.4-3.2-1.3-4.9-2
						c-0.2-0.1-0.3,0.2-0.1,0.3c1.6,0.6,2.9,1.5,4.6,2c1.2,0.3,2.6,0.8,3.9,0.9c0,0.1,0,0.1,0,0.2c0,0,0,0,0,0c0,0.1,0,0.2,0.1,0.2
						c0.2,1.1,0.5,2.2,0.7,3.3c0,0.1,0,0.1,0,0.2c-2.8,0-7.1-0.2-8.7-2.8c-0.1-0.2-0.5,0-0.3,0.2c2.1,2.7,6.1,2.5,9.2,3.1
						c0.3,1.2,0.6,2.5,1,3.7c-1.7,0.2-3.5,0.2-5.2-0.2c-1.6-0.4-3.7-0.7-4.9-1.9c0,0-0.1,0,0,0.1c1.1,1.2,3,1.5,4.5,1.9
						c1.9,0.6,3.8,1,5.7,0.7c0,0.1,0,0.1,0.1,0.1c0.2,0.8,0.4,1.5,0.7,2.3c-2.9,1.1-7.9,0.8-10.3-0.7c0,0,0,0,0,0
						c1.7,1.2,3.7,1.4,5.7,1.5c1.5,0,3.2,0.1,4.7-0.4c0.4,1.4,0.8,2.9,1.3,4.3c-1.4,0.1-2.8,0.5-4.3,0.6c-2.1,0.1-4.1-0.5-5.9-1.6
						c-0.1-0.1-0.2,0.1-0.1,0.2c3.4,2.2,6.6,1.8,10.5,1.4c0.4,1.2,0.7,2.4,1,3.5c-2.9,0.7-7.2,0.7-9.6-1c-0.2-0.1-0.4,0.1-0.2,0.3
						c1.6,1.1,3.5,1.4,5.4,1.4c1.4,0,3.3,0.3,4.6-0.2c0,0,0,0.1,0,0.1c0.5,1.7,0.9,3.4,1.3,5.1c-3.4,0.6-6.3-0.7-9.5-1.8
						c-0.2-0.1-0.4,0.3-0.1,0.3c3.2,1.2,6.3,2.5,9.8,1.9c0.3,1.4,0.6,2.8,0.9,4.2c-2.9,0.5-6.3-0.2-8.9-1.5
						c-0.2-0.1-0.3,0.2-0.1,0.3c2.8,1.5,6.1,2,9.1,1.7c0.3,1.5,0.6,3,0.9,4.5c-2.8,0.8-5.6,0.1-8.2-1.2c-0.1,0-0.1,0.1-0.1,0.1
						c2.4,1.3,5.6,2.6,8.4,1.7c0.1,0.5,0.2,1,0.3,1.5c0,0.3,0.1,0.6,0.2,0.9c-2.3,0.3-4.4,0.5-6.7-0.1c-0.1,0-0.1,0.1,0,0.1
						c2.2,0.7,4.5,0.8,6.8,0.4c0.2,0.9,0.3,1.9,0.5,2.8c-0.6,0-1.2,0-1.8,0.1c-1.1,0.2-2.1-0.2-3.2-0.3c-0.1,0-0.1,0.1,0,0.2
						c1,0.1,1.8,0.5,2.8,0.5c0.8-0.1,1.5,0,2.2,0c0.7,3.8,1.5,7.8,3.5,10.8c0.4,0.7,1.7,0.3,1.5-0.5
						C358.2,368.5,357,366,356.1,363.5z"/>
				</g>
				<g>
					
						<linearGradient id="SVGID_00000088134321223085659440000009331777580969622949_" gradientUnits="userSpaceOnUse" x1="806.6323" y1="568.6927" x2="757.9534" y2="507.3275" gradientTransform="matrix(0.6073 -0.7945 -0.7945 -0.6073 316.5512 1271.3605)">
						<stop  offset="0" style="stop-color:#606BF1"/>
						<stop  offset="1" style="stop-color:#58479F"/>
					</linearGradient>
					<path style="fill:url(#SVGID_00000088134321223085659440000009331777580969622949_);" d="M377.4,328.4
						c0.5,10.5,5.4,27.4-7.1,33.4c-3.4,1.6-7.4,0-10.2-2.3c-3.6-3-6.3-10.7-7.4-15.2c-0.9-3.6-0.6-7.8-1.2-11.5
						c-0.6-4-1.2-7.9-1.7-11.9c-1.9-14.3,2.4-27.9,13-37.9c2.1,4.3,5.3,7.6,8.3,11.6c1.4,1.8,2.7,3.7,3.8,5.6
						c2,3.5,1.7,7.5,1.7,11.3C376.5,317.1,377.2,322.8,377.4,328.4z"/>
					<path class="st27" d="M368.1,362.7c-0.1-0.9-0.2-1.7-0.3-2.6c1.6-0.4,3-1.7,4.1-2.7c2-1.8,3.4-4,4.8-6.2
						c0.1-0.1-0.1-0.2-0.2-0.1c-1.4,2-2.9,3.9-4.8,5.5c-1,0.9-2.6,2.2-4,2.8c-0.1-1-0.2-2.1-0.3-3.1c1.6-0.6,2.8-2.1,4-3.3
						c2-2,3.6-4.3,5.2-6.6c0,0,0-0.1,0,0c-2.6,3.2-5.4,7.4-9.3,9.2c-0.1-1.3-0.2-2.6-0.2-3.9c0-0.1,0-0.1,0-0.2
						c4.4-2.4,6.7-6.9,9.5-10.8c0-0.1,0-0.1-0.1-0.1c-2.9,3.7-5.4,7.7-9.5,10.1c-0.1-1.9-0.1-3.7-0.2-5.6c3.9-2.7,6.7-6,8.8-10.3
						c0-0.1-0.1-0.1-0.1-0.1c-2.3,4-5.2,6.7-8.7,9.5c0-1.8-0.1-3.7-0.2-5.5c1.6-1.4,3.4-2.4,4.8-4c1.4-1.6,2.5-3.4,3.2-5.4
						c0-0.1-0.1-0.2-0.2,0c-1.5,4-4.9,6-7.9,8.7c-0.1-1.7-0.2-3.4-0.3-5.1c3.3-3.1,7.1-6.2,8.2-10.8c0,0-0.1-0.1-0.1,0
						c-1.4,4.4-5,7-8.2,10c0-0.3,0-0.6-0.1-0.9c-0.1-1.6-0.3-3.2-0.5-4.8c2-1.5,3.8-3.3,5.5-5.1c1.2-1.3,2.5-2.6,3-4.3
						c0-0.1-0.1-0.2-0.2-0.1c-1.3,3.5-5.5,6.4-8.5,8.7c-0.2-1.6-0.3-3.2-0.5-4.8c3.2-3.2,7.2-5.6,8.5-10.2c0-0.1-0.2-0.2-0.2-0.1
						c-1.4,4.3-5.4,6.5-8.4,9.5c-0.1-1-0.2-2-0.3-3c3.7-2.5,7.5-7.1,8.7-11.3c0.1-0.2-0.3-0.3-0.4-0.1c-1.4,3.8-4.8,8.3-8.4,10.6
						c-0.1-1.6-0.3-3.2-0.4-4.8c0,0,0-0.1,0-0.1c1.7-1,3.1-2.7,4.5-4.1c1.6-1.6,3-3.5,3.7-5.7c0.1-0.2-0.3-0.4-0.4-0.1
						c-1,3.6-4.7,6.9-7.9,9c0-0.6-0.1-1.2-0.1-1.8c0-0.9-0.1-1.8-0.1-2.6c1.2-1.4,2.9-2.3,4.1-3.7c1-1.2,1.9-2.6,2.6-4
						c0.1-0.1-0.1-0.3-0.2-0.1c-1.1,1.7-2.3,3.4-3.8,4.8c-0.9,0.8-1.9,1.4-2.7,2.2c-0.1-1.4-0.1-2.9-0.2-4.3c0,0,0,0,0,0s0,0,0,0
						c0.1,0,0.2-0.1,0.2-0.1c1.8-1,2.9-3.1,3.9-4.8c0,0,0-0.1-0.1,0c-1.1,1.6-2.3,3.4-4,4.5c0,0,0,0,0,0c0,0-0.1,0-0.1,0
						c-0.1-1.2-0.1-2.3-0.2-3.5c0.1-0.1,0.2-0.2,0.2-0.4c0.9-1,1.6-2.1,2.2-3.2c0-0.1-0.1-0.2-0.1-0.1c-0.7,1-1.5,1.9-2.4,2.8
						c-0.2-2.4-0.5-4.8-1-7.2c0-0.2-0.4-0.1-0.3,0.1c0.4,2.3,0.6,4.6,0.8,7c-1.4-1.1-3-2.3-4.1-3.8c-0.1-0.1-0.2,0-0.1,0.1
						c0.6,0.9,1.4,1.7,2.1,2.4c0.7,0.7,1.3,1.5,2.1,2.1c0.1,1.2,0.1,2.5,0.2,3.8c-1.4,0.1-2.6,0.2-4-0.5c-1.6-0.8-2.8-2.2-3.4-4
						c-0.1-0.2-0.4-0.1-0.3,0.1c0.6,1.6,1.6,3,3,3.9c1.5,1,3,1,4.6,1c0.1,1.5,0.1,2.9,0.2,4.4c-1.4-0.4-2.7-1.1-4-1.7
						c-2.1-1-3.5-2.4-5.4-3.5c-0.2-0.1-0.4,0.2-0.2,0.3c1.8,1.1,3.2,2.5,5.1,3.5c1.4,0.7,3,1.6,4.5,1.9c0,0.1,0,0.1,0,0.2
						c0,0,0,0,0,0c-0.1,0.1,0,0.2,0,0.3c0,1.4,0.1,2.8,0.1,4.2c0,0.1,0,0.2,0,0.3c-3.4-0.6-8.6-1.9-10-5.4c-0.1-0.3-0.6-0.1-0.4,0.2
						c1.9,3.8,6.8,4.5,10.4,5.9c0.1,1.6,0.2,3.1,0.3,4.7c-2.2-0.2-4.3-0.5-6.3-1.5c-1.8-0.8-4.3-1.7-5.5-3.4c0,0-0.1,0-0.1,0.1
						c1.1,1.7,3.4,2.5,5.1,3.4c2.2,1.2,4.4,2.1,6.8,2.1c0,0.1,0,0.1,0,0.2c0.1,1,0.2,2,0.3,3c-3.8,0.7-9.7-0.9-12.4-3.2c0,0,0,0,0,0
						c1.9,1.8,4.1,2.6,6.6,3.1c1.9,0.4,3.9,0.9,5.8,0.6c0.2,1.8,0.4,3.7,0.5,5.5c-1.8-0.2-3.6,0-5.3-0.3c-2.6-0.4-4.9-1.6-6.8-3.4
						c-0.1-0.1-0.3,0-0.2,0.2c3.6,3.5,7.6,3.7,12.4,4.2c0.1,1.5,0.3,3,0.4,4.5c-3.7,0.2-8.9-0.8-11.5-3.4c-0.2-0.2-0.5,0.1-0.3,0.3
						c1.6,1.7,3.9,2.5,6.2,3c1.6,0.4,3.9,1.1,5.7,0.8c0,0,0,0.1,0,0.1c0.2,2.2,0.3,4.4,0.4,6.5c-4.2,0-7.5-2.3-11.1-4.3
						c-0.2-0.1-0.5,0.2-0.2,0.4c3.7,2.2,7,4.5,11.4,4.6c0.1,1.8,0.1,3.5,0.1,5.3c-3.6-0.1-7.6-1.6-10.5-3.9
						c-0.2-0.2-0.4,0.2-0.2,0.3c3,2.4,6.9,3.9,10.7,4.2c0,1.9,0,3.8,0,5.7c-3.6,0.4-6.9-1.1-9.7-3.4c-0.1,0-0.2,0.1-0.1,0.1
						c2.6,2.2,6.2,4.5,9.8,4c0,0.6,0,1.2,0,1.8c0,0.4,0,0.7,0,1.1c-2.8-0.1-5.5-0.4-8.1-1.7c-0.1,0-0.1,0.1,0,0.1
						c2.5,1.3,5.3,2,8.1,2.1c0,1.1,0,2.3-0.1,3.5c-0.7-0.1-1.4-0.3-2.2-0.4c-1.4-0.1-2.5-0.7-3.8-1.1c-0.1,0-0.2,0.1-0.1,0.2
						c1.2,0.4,2.1,1.1,3.3,1.2c0.9,0.1,1.8,0.3,2.7,0.5c-0.1,4.8,0.1,9.8,1.7,13.9c0.4,0.9,2,0.8,2-0.3
						C369.4,369.3,368.6,366,368.1,362.7z"/>
				</g>
				<polygon class="st30" points="384.3,366.7 383.9,375.2 383.1,388.5 382,410.4 352.4,410.4 351.2,388.5 350.5,375.2 350,366.7 
									"/>
				<polygon class="st25" points="383.9,375.2 383.8,376.9 383.7,378.7 383.1,388.5 351.2,388.5 350.6,378.7 350.5,376.9 
					350.5,375.2 				"/>
				<polygon class="st30" points="383.8,376.9 383.7,378.7 350.6,378.7 350.5,376.9 				"/>
			</g>
		</g>
	</g>
</g>
<g id="Designed_By_Freepik">
</g>
</svg>
